# xmcd
#
# Track frame offsets:
#	150
#	19165
#	35450
#	50952
#	67620
#	85894
#	99711
#	114483
#	129651
#	145626
#	161537
#	175255
#
# Disc length: 2533 seconds
#
# Revision: 0
# Processed by: cddbd v1.5.1PL0 Copyright (c) Steve Scherf et al.
# Submitted via: EasyCDDAExtractor 8.2.1.1
#
DISCID=9d09e30c
DTITLE=Keith Whitley - Greatest Hits
DYEAR=1900
DGENRE=Country
TTITLE0=Don't Close Your Eyes
TTITLE1=Im No Stranger to the Rain
TTITLE2=Miami My Amy
TTITLE3=When You Say Nothin at All
TTITLE4=It Aint Nothin'
TTITLE5=I'm over You
TTITLE6=I Wonder Do You Think of Me
TTITLE7=Ten Feet Away
TTITLE8=Talk to Me Texas
TTITLE9=Till a Tear Becomes a Rose
TTITLE10=Tell Lorrie I Love Her
TTITLE11=Do You Think Of Me
EXTD=
EXTT0=
EXTT1=
EXTT2=
EXTT3=
EXTT4=
EXTT5=
EXTT6=
EXTT7=
EXTT8=
EXTT9=
EXTT10=
EXTT11=
PLAYORDER=
